<mxfile><diagram id="VGDk2ECgagEEjUjPb0lk" name="第 1 页"><mxGraphModel dx="550" dy="341" grid="1" gridSize="10" guides="1" tooltips="1" connect="1" arrows="1" fold="1" page="1" pageScale="1" pageWidth="827" pageHeight="1169" math="0" shadow="0"><root><mxCell id="0"/><mxCell id="1" parent="0"/><mxCell id="17" value="" style="edgeStyle=none;html=1;" parent="1" source="12" target="16" edge="1"><mxGeometry relative="1" as="geometry"/></mxCell><mxCell id="20" value="1" style="edgeLabel;html=1;align=center;verticalAlign=middle;resizable=0;points=[];" parent="17" vertex="1" connectable="0"><mxGeometry x="0.2743" y="1" relative="1" as="geometry"><mxPoint x="-1" y="-12" as="offset"/></mxGeometry></mxCell><mxCell id="71" value="" style="edgeStyle=none;html=1;" parent="1" source="12" target="70" edge="1"><mxGeometry relative="1" as="geometry"/></mxCell><mxCell id="77" value="" style="edgeStyle=none;html=1;" parent="1" source="12" target="76" edge="1"><mxGeometry relative="1" as="geometry"/></mxCell><mxCell id="12" value="学校" style="rounded=0;whiteSpace=wrap;html=1;" parent="1" vertex="1"><mxGeometry x="309" y="50" width="120" height="60" as="geometry"/></mxCell><mxCell id="19" value="" style="edgeStyle=none;html=1;" parent="1" source="16" target="18" edge="1"><mxGeometry relative="1" as="geometry"/></mxCell><mxCell id="21" value="n" style="edgeLabel;html=1;align=center;verticalAlign=middle;resizable=0;points=[];" parent="19" vertex="1" connectable="0"><mxGeometry x="-0.2756" relative="1" as="geometry"><mxPoint as="offset"/></mxGeometry></mxCell><mxCell id="16" value="包含" style="rhombus;whiteSpace=wrap;html=1;rounded=0;" parent="1" vertex="1"><mxGeometry x="329" y="150" width="80" height="80" as="geometry"/></mxCell><mxCell id="27" value="" style="edgeStyle=none;html=1;" parent="1" source="18" target="26" edge="1"><mxGeometry relative="1" as="geometry"/></mxCell><mxCell id="32" value="1" style="edgeLabel;html=1;align=center;verticalAlign=middle;resizable=0;points=[];" parent="27" vertex="1" connectable="0"><mxGeometry x="0.444" y="-3" relative="1" as="geometry"><mxPoint x="-12" y="-3" as="offset"/></mxGeometry></mxCell><mxCell id="30" value="" style="edgeStyle=none;html=1;" parent="1" source="18" target="29" edge="1"><mxGeometry relative="1" as="geometry"/></mxCell><mxCell id="34" value="1" style="edgeLabel;html=1;align=center;verticalAlign=middle;resizable=0;points=[];" parent="30" vertex="1" connectable="0"><mxGeometry x="0.4743" y="-2" relative="1" as="geometry"><mxPoint x="2" y="-22" as="offset"/></mxGeometry></mxCell><mxCell id="73" value="" style="edgeStyle=none;html=1;" parent="1" source="18" target="72" edge="1"><mxGeometry relative="1" as="geometry"/></mxCell><mxCell id="75" value="" style="edgeStyle=none;html=1;" parent="1" source="18" target="74" edge="1"><mxGeometry relative="1" as="geometry"/></mxCell><mxCell id="18" value="院系" style="whiteSpace=wrap;html=1;rounded=0;" parent="1" vertex="1"><mxGeometry x="299" y="260" width="120" height="60" as="geometry"/></mxCell><mxCell id="46" value="" style="edgeStyle=none;html=1;" parent="1" source="22" target="45" edge="1"><mxGeometry relative="1" as="geometry"/></mxCell><mxCell id="49" value="1" style="edgeLabel;html=1;align=center;verticalAlign=middle;resizable=0;points=[];" parent="46" vertex="1" connectable="0"><mxGeometry x="-0.484" y="2" relative="1" as="geometry"><mxPoint as="offset"/></mxGeometry></mxCell><mxCell id="98" value="" style="edgeStyle=none;html=1;" parent="1" source="22" target="97" edge="1"><mxGeometry relative="1" as="geometry"/></mxCell><mxCell id="22" value="班级" style="whiteSpace=wrap;html=1;rounded=0;" parent="1" vertex="1"><mxGeometry x="513" y="460" width="120" height="60" as="geometry"/></mxCell><mxCell id="38" value="" style="edgeStyle=none;html=1;" parent="1" source="24" target="37" edge="1"><mxGeometry relative="1" as="geometry"/></mxCell><mxCell id="43" value="1" style="edgeLabel;html=1;align=center;verticalAlign=middle;resizable=0;points=[];" parent="38" vertex="1" connectable="0"><mxGeometry x="-0.3262" relative="1" as="geometry"><mxPoint as="offset"/></mxGeometry></mxCell><mxCell id="104" value="" style="edgeStyle=none;html=1;" parent="1" source="24" target="103" edge="1"><mxGeometry relative="1" as="geometry"/></mxCell><mxCell id="106" style="edgeStyle=none;html=1;exitX=0;exitY=0.5;exitDx=0;exitDy=0;entryX=1;entryY=0.5;entryDx=0;entryDy=0;" parent="1" source="24" target="105" edge="1"><mxGeometry relative="1" as="geometry"/></mxCell><mxCell id="24" value="教研室" style="whiteSpace=wrap;html=1;rounded=0;" parent="1" vertex="1"><mxGeometry x="189" y="460" width="120" height="60" as="geometry"/></mxCell><mxCell id="28" value="" style="edgeStyle=none;html=1;" parent="1" source="26" target="22" edge="1"><mxGeometry relative="1" as="geometry"/></mxCell><mxCell id="33" value="n" style="edgeLabel;html=1;align=center;verticalAlign=middle;resizable=0;points=[];" parent="28" vertex="1" connectable="0"><mxGeometry x="-0.3943" y="1" relative="1" as="geometry"><mxPoint x="9" y="1" as="offset"/></mxGeometry></mxCell><mxCell id="26" value="包含" style="rhombus;whiteSpace=wrap;html=1;rounded=0;" parent="1" vertex="1"><mxGeometry x="539" y="350" width="80" height="80" as="geometry"/></mxCell><mxCell id="31" value="" style="edgeStyle=none;html=1;" parent="1" source="29" target="24" edge="1"><mxGeometry relative="1" as="geometry"/></mxCell><mxCell id="35" value="n" style="edgeLabel;html=1;align=center;verticalAlign=middle;resizable=0;points=[];" parent="31" vertex="1" connectable="0"><mxGeometry x="0.384" y="-1" relative="1" as="geometry"><mxPoint x="1" y="-14" as="offset"/></mxGeometry></mxCell><mxCell id="29" value="包含" style="rhombus;whiteSpace=wrap;html=1;rounded=0;" parent="1" vertex="1"><mxGeometry x="199" y="350" width="80" height="80" as="geometry"/></mxCell><mxCell id="40" value="" style="edgeStyle=none;html=1;" parent="1" source="37" target="39" edge="1"><mxGeometry relative="1" as="geometry"/></mxCell><mxCell id="44" value="n" style="edgeLabel;html=1;align=center;verticalAlign=middle;resizable=0;points=[];" parent="40" vertex="1" connectable="0"><mxGeometry x="-0.4229" y="1" relative="1" as="geometry"><mxPoint as="offset"/></mxGeometry></mxCell><mxCell id="37" value="包含" style="rhombus;whiteSpace=wrap;html=1;rounded=0;" parent="1" vertex="1"><mxGeometry x="209" y="560" width="80" height="80" as="geometry"/></mxCell><mxCell id="52" value="" style="edgeStyle=none;html=1;" parent="1" source="39" target="51" edge="1"><mxGeometry relative="1" as="geometry"/></mxCell><mxCell id="54" value="m" style="edgeLabel;html=1;align=center;verticalAlign=middle;resizable=0;points=[];" parent="52" vertex="1" connectable="0"><mxGeometry x="-0.5829" y="-1" relative="1" as="geometry"><mxPoint as="offset"/></mxGeometry></mxCell><mxCell id="65" value="" style="edgeStyle=none;html=1;" parent="1" source="39" target="64" edge="1"><mxGeometry relative="1" as="geometry"/></mxCell><mxCell id="68" value="1" style="edgeLabel;html=1;align=center;verticalAlign=middle;resizable=0;points=[];" parent="65" vertex="1" connectable="0"><mxGeometry x="0.3029" y="2" relative="1" as="geometry"><mxPoint as="offset"/></mxGeometry></mxCell><mxCell id="88" value="" style="edgeStyle=none;html=1;" parent="1" source="39" target="51" edge="1"><mxGeometry relative="1" as="geometry"/></mxCell><mxCell id="89" value="" style="edgeStyle=none;html=1;" parent="1" source="39" target="51" edge="1"><mxGeometry relative="1" as="geometry"/></mxCell><mxCell id="90" value="" style="edgeStyle=none;html=1;" parent="1" source="39" target="51" edge="1"><mxGeometry relative="1" as="geometry"/></mxCell><mxCell id="92" value="" style="edgeStyle=none;html=1;" parent="1" source="39" target="91" edge="1"><mxGeometry relative="1" as="geometry"/></mxCell><mxCell id="95" value="m" style="edgeLabel;html=1;align=center;verticalAlign=middle;resizable=0;points=[];" parent="92" vertex="1" connectable="0"><mxGeometry x="0.3122" y="-2" relative="1" as="geometry"><mxPoint as="offset"/></mxGeometry></mxCell><mxCell id="39" value="教员" style="whiteSpace=wrap;html=1;rounded=0;" parent="1" vertex="1"><mxGeometry x="189" y="680" width="120" height="60" as="geometry"/></mxCell><mxCell id="48" value="" style="edgeStyle=none;html=1;" parent="1" source="45" target="47" edge="1"><mxGeometry relative="1" as="geometry"/></mxCell><mxCell id="50" value="n" style="edgeLabel;html=1;align=center;verticalAlign=middle;resizable=0;points=[];" parent="48" vertex="1" connectable="0"><mxGeometry x="-0.4067" y="-1" relative="1" as="geometry"><mxPoint as="offset"/></mxGeometry></mxCell><mxCell id="45" value="包含" style="rhombus;whiteSpace=wrap;html=1;rounded=0;" parent="1" vertex="1"><mxGeometry x="539" y="560" width="80" height="80" as="geometry"/></mxCell><mxCell id="59" value="" style="edgeStyle=none;html=1;" parent="1" source="47" target="58" edge="1"><mxGeometry relative="1" as="geometry"/></mxCell><mxCell id="62" value="m" style="edgeLabel;html=1;align=center;verticalAlign=middle;resizable=0;points=[];" parent="59" vertex="1" connectable="0"><mxGeometry x="0.3886" relative="1" as="geometry"><mxPoint as="offset"/></mxGeometry></mxCell><mxCell id="81" value="" style="edgeStyle=none;html=1;" parent="1" source="47" target="80" edge="1"><mxGeometry relative="1" as="geometry"/></mxCell><mxCell id="83" value="" style="edgeStyle=none;html=1;" parent="1" source="47" target="82" edge="1"><mxGeometry relative="1" as="geometry"/></mxCell><mxCell id="85" value="" style="edgeStyle=none;html=1;" parent="1" source="47" target="84" edge="1"><mxGeometry relative="1" as="geometry"/></mxCell><mxCell id="47" value="学生" style="whiteSpace=wrap;html=1;rounded=0;" parent="1" vertex="1"><mxGeometry x="519" y="680" width="120" height="60" as="geometry"/></mxCell><mxCell id="53" value="" style="edgeStyle=none;html=1;" parent="1" source="51" target="47" edge="1"><mxGeometry relative="1" as="geometry"/></mxCell><mxCell id="55" value="n" style="edgeLabel;html=1;align=center;verticalAlign=middle;resizable=0;points=[];" parent="53" vertex="1" connectable="0"><mxGeometry x="-0.5467" y="3" relative="1" as="geometry"><mxPoint as="offset"/></mxGeometry></mxCell><mxCell id="51" value="指导" style="rhombus;whiteSpace=wrap;html=1;rounded=0;" parent="1" vertex="1"><mxGeometry x="400" y="660" width="80" height="80" as="geometry"/></mxCell><mxCell id="61" value="" style="edgeStyle=none;html=1;" parent="1" source="58" target="60" edge="1"><mxGeometry relative="1" as="geometry"/></mxCell><mxCell id="63" value="n" style="edgeLabel;html=1;align=center;verticalAlign=middle;resizable=0;points=[];" parent="61" vertex="1" connectable="0"><mxGeometry x="-0.2533" y="2" relative="1" as="geometry"><mxPoint as="offset"/></mxGeometry></mxCell><mxCell id="58" value="选修" style="rhombus;whiteSpace=wrap;html=1;rounded=0;" parent="1" vertex="1"><mxGeometry x="539" y="810" width="80" height="80" as="geometry"/></mxCell><mxCell id="87" value="" style="edgeStyle=none;html=1;" parent="1" source="60" target="86" edge="1"><mxGeometry relative="1" as="geometry"/></mxCell><mxCell id="99" value="" style="edgeStyle=none;html=1;" parent="1" source="60" target="86" edge="1"><mxGeometry relative="1" as="geometry"/></mxCell><mxCell id="100" value="" style="edgeStyle=none;html=1;" parent="1" source="60" target="86" edge="1"><mxGeometry relative="1" as="geometry"/></mxCell><mxCell id="102" value="" style="edgeStyle=none;html=1;" parent="1" source="60" target="101" edge="1"><mxGeometry relative="1" as="geometry"/></mxCell><mxCell id="60" value="课程" style="whiteSpace=wrap;html=1;rounded=0;" parent="1" vertex="1"><mxGeometry x="519" y="950" width="120" height="60" as="geometry"/></mxCell><mxCell id="67" value="" style="edgeStyle=none;html=1;" parent="1" source="64" target="66" edge="1"><mxGeometry relative="1" as="geometry"/></mxCell><mxCell id="69" value="n" style="edgeLabel;html=1;align=center;verticalAlign=middle;resizable=0;points=[];" parent="67" vertex="1" connectable="0"><mxGeometry x="0.5022" y="-2" relative="1" as="geometry"><mxPoint as="offset"/></mxGeometry></mxCell><mxCell id="64" value="带领" style="rhombus;whiteSpace=wrap;html=1;rounded=0;" parent="1" vertex="1"><mxGeometry x="209" y="810" width="80" height="80" as="geometry"/></mxCell><mxCell id="66" value="研究生" style="whiteSpace=wrap;html=1;rounded=0;" parent="1" vertex="1"><mxGeometry x="189" y="950" width="120" height="60" as="geometry"/></mxCell><mxCell id="70" value="名称" style="ellipse;whiteSpace=wrap;html=1;rounded=0;" parent="1" vertex="1"><mxGeometry x="509" y="50" width="120" height="60" as="geometry"/></mxCell><mxCell id="72" value="名称" style="ellipse;whiteSpace=wrap;html=1;rounded=0;" parent="1" vertex="1"><mxGeometry x="470" y="180" width="120" height="60" as="geometry"/></mxCell><mxCell id="74" value="编号" style="ellipse;whiteSpace=wrap;html=1;rounded=0;" parent="1" vertex="1"><mxGeometry x="130" y="180" width="120" height="60" as="geometry"/></mxCell><mxCell id="76" value="位置" style="ellipse;whiteSpace=wrap;html=1;rounded=0;" parent="1" vertex="1"><mxGeometry x="109" y="50" width="120" height="60" as="geometry"/></mxCell><mxCell id="80" value="姓名" style="ellipse;whiteSpace=wrap;html=1;rounded=0;" parent="1" vertex="1"><mxGeometry x="696" y="600" width="120" height="60" as="geometry"/></mxCell><mxCell id="82" value="学号" style="ellipse;whiteSpace=wrap;html=1;rounded=0;" parent="1" vertex="1"><mxGeometry x="696" y="750" width="120" height="60" as="geometry"/></mxCell><mxCell id="84" value="性别" style="ellipse;whiteSpace=wrap;html=1;rounded=0;" parent="1" vertex="1"><mxGeometry x="696" y="680" width="120" height="60" as="geometry"/></mxCell><mxCell id="86" value="名称" style="ellipse;whiteSpace=wrap;html=1;rounded=0;" parent="1" vertex="1"><mxGeometry x="696" y="900" width="120" height="60" as="geometry"/></mxCell><mxCell id="94" style="edgeStyle=none;html=1;exitX=1;exitY=1;exitDx=0;exitDy=0;entryX=0;entryY=0.5;entryDx=0;entryDy=0;" parent="1" source="91" target="60" edge="1"><mxGeometry relative="1" as="geometry"/></mxCell><mxCell id="96" value="n" style="edgeLabel;html=1;align=center;verticalAlign=middle;resizable=0;points=[];" parent="94" vertex="1" connectable="0"><mxGeometry x="-0.2764" relative="1" as="geometry"><mxPoint as="offset"/></mxGeometry></mxCell><mxCell id="91" value="教授" style="rhombus;whiteSpace=wrap;html=1;rounded=0;" parent="1" vertex="1"><mxGeometry x="374" y="840" width="80" height="80" as="geometry"/></mxCell><mxCell id="97" value="编号" style="ellipse;whiteSpace=wrap;html=1;rounded=0;" parent="1" vertex="1"><mxGeometry x="690" y="460" width="120" height="60" as="geometry"/></mxCell><mxCell id="101" value="编号" style="ellipse;whiteSpace=wrap;html=1;rounded=0;" parent="1" vertex="1"><mxGeometry x="696" y="970" width="120" height="60" as="geometry"/></mxCell><mxCell id="103" value="编号" style="ellipse;whiteSpace=wrap;html=1;rounded=0;" parent="1" vertex="1"><mxGeometry x="20" y="400" width="120" height="60" as="geometry"/></mxCell><mxCell id="105" value="名称" style="ellipse;whiteSpace=wrap;html=1;rounded=0;" parent="1" vertex="1"><mxGeometry x="20" y="490" width="120" height="60" as="geometry"/></mxCell><mxCell id="107" style="edgeStyle=none;html=1;exitX=0;exitY=0.5;exitDx=0;exitDy=0;entryX=1;entryY=0.5;entryDx=0;entryDy=0;" parent="1" target="108" edge="1" source="39"><mxGeometry relative="1" as="geometry"><mxPoint x="189" y="710" as="sourcePoint"/></mxGeometry></mxCell><mxCell id="108" value="姓名" style="ellipse;whiteSpace=wrap;html=1;rounded=0;" parent="1" vertex="1"><mxGeometry x="20" y="680" width="120" height="60" as="geometry"/></mxCell><mxCell id="109" style="edgeStyle=none;html=1;exitX=0;exitY=0.5;exitDx=0;exitDy=0;entryX=1;entryY=0.5;entryDx=0;entryDy=0;" parent="1" target="110" edge="1" source="66"><mxGeometry relative="1" as="geometry"><mxPoint x="189" y="980" as="sourcePoint"/></mxGeometry></mxCell><mxCell id="110" value="姓名" style="ellipse;whiteSpace=wrap;html=1;rounded=0;" parent="1" vertex="1"><mxGeometry x="20" y="950" width="120" height="60" as="geometry"/></mxCell></root></mxGraphModel></diagram></mxfile>